<svg width="33" height="33" viewBox="0 0 33 33" fill="none" xmlns="http://www.w3.org/2000/svg">
<path d="M6.123 0C4.50103 0.00632048 2.94729 0.65345 1.80037 1.80037C0.65345 2.94729 0.00632048 4.50103 0 6.123V26.877C0.00632048 28.499 0.65345 30.0527 1.80037 31.1996C2.94729 32.3465 4.50103 32.9937 6.123 33H26.877C28.499 32.9937 30.0527 32.3465 31.1996 31.1996C32.3465 30.0527 32.9937 28.499 33 26.877V6.123C32.9937 4.50103 32.3465 2.94729 31.1996 1.80037C30.0527 0.65345 28.499 0.00632048 26.877 0H6.123ZM6.123 3H26.877C28.617 3 30 4.383 30 6.123V26.877C30 28.617 28.617 30 26.877 30H6.123C5.71216 30.0026 5.30489 29.9236 4.92482 29.7676C4.54475 29.6115 4.19945 29.3816 3.90893 29.0911C3.61842 28.8006 3.38848 28.4552 3.23245 28.0752C3.07642 27.6951 2.99741 27.2878 3 26.877V6.123C3 4.383 4.383 3 6.123 3ZM16.0785 10.845C14.976 10.8345 14.0385 10.845 13.512 11.103C13.1595 11.274 12.891 11.6595 13.0545 11.6775C13.26 11.7075 13.722 11.8065 13.9695 12.141C14.2845 12.5685 14.274 13.536 14.274 13.536C14.274 13.536 14.4495 16.1955 13.845 16.53C13.4295 16.758 12.861 16.2945 11.631 14.1795C11.004 13.0905 10.53 11.889 10.53 11.889C10.53 11.889 10.44 11.6655 10.278 11.5485C10.0785 11.403 9.8025 11.355 9.8025 11.355L6.867 11.373C6.867 11.373 6.4275 11.391 6.27 11.5785C6.123 11.754 6.258 12.099 6.258 12.099C6.258 12.099 8.5545 17.472 11.1555 20.1795C13.5405 22.665 16.248 22.5 16.248 22.5H17.478C17.478 22.5 17.847 22.4595 18.0345 22.26C18.2115 22.0725 18.2055 21.72 18.2055 21.72C18.2055 21.72 18.1815 20.0745 18.9435 19.8285C19.6995 19.593 20.6595 21.4215 21.6855 22.125C22.4655 22.6575 23.0565 22.5405 23.0565 22.5405L25.8 22.5C25.8 22.5 27.2295 22.4115 26.55 21.2805C26.4975 21.1935 26.157 20.4495 24.5175 18.9255C22.794 17.3325 23.0235 17.5905 25.0965 14.8305C26.3565 13.149 26.8605 12.123 26.7015 11.6775C26.5515 11.262 25.6245 11.373 25.6245 11.373L22.536 11.391C22.536 11.391 22.308 11.361 22.1385 11.4615C22.022 11.5481 21.9291 11.6626 21.8685 11.7945C21.8685 11.7945 21.3765 13.095 20.7255 14.2035C19.3545 16.5345 18.798 16.6635 18.576 16.518C18.054 16.1775 18.183 15.1575 18.183 14.4375C18.183 12.1695 18.528 11.232 17.5155 10.9875C17.181 10.905 16.935 10.8525 16.08 10.845H16.0785Z" fill="#F5F5F5"/>
</svg>
