<svg width="28" height="28" viewBox="0 0 28 28" fill="none" xmlns="http://www.w3.org/2000/svg">
<path d="M19.327 25.6652H19.3597C19.9757 25.6652 20.5578 25.4225 20.9988 24.9815L24.1628 21.8175C24.2713 21.7093 24.3573 21.5807 24.416 21.4391C24.4747 21.2976 24.5049 21.1459 24.5049 20.9927C24.5049 20.8394 24.4747 20.6877 24.416 20.5462C24.3573 20.4047 24.2713 20.2761 24.1628 20.1678L19.4962 15.5012C19.3879 15.3927 19.2593 15.3067 19.1178 15.248C18.9763 15.1893 18.8245 15.1591 18.6713 15.1591C18.5181 15.1591 18.3664 15.1893 18.2248 15.248C18.0833 15.3067 17.9547 15.3927 17.8465 15.5012L15.9868 17.3608C15.1247 17.1042 13.5158 16.5208 12.4962 15.5012C11.4765 14.4815 10.8932 12.8727 10.6365 12.0105L12.4962 10.1508C12.6046 10.0426 12.6906 9.91402 12.7493 9.77248C12.808 9.63095 12.8382 9.47923 12.8382 9.32601C12.8382 9.17278 12.808 9.02107 12.7493 8.87953C12.6906 8.738 12.6046 8.60943 12.4962 8.50117L7.82949 3.83451C7.60645 3.62399 7.31136 3.50671 7.00465 3.50671C6.69795 3.50671 6.40286 3.62399 6.17982 3.83451L3.01699 6.99851C2.57365 7.44184 2.32399 8.05084 2.33332 8.67267C2.36015 10.334 2.79999 16.1043 7.34765 20.652C11.8953 25.1997 17.6657 25.6383 19.327 25.6652ZM7.00582 6.30901L10.0228 9.32601L8.51432 10.8345C8.37704 10.9714 8.2762 11.1405 8.22098 11.3263C8.16576 11.5122 8.15791 11.7089 8.19815 11.8985C8.22615 12.0327 8.91099 15.2142 10.8477 17.1508C12.7843 19.0875 15.9658 19.7723 16.1 19.8003C16.2896 19.8408 16.4864 19.8331 16.6723 19.7778C16.8582 19.7226 17.0272 19.6216 17.164 19.4842L18.6725 17.9757L21.6895 20.9927L19.3492 23.3318C17.8932 23.3073 12.9115 22.9165 8.99732 19.0012C5.07032 15.0742 4.68999 10.075 4.66665 8.64817L7.00582 6.30901ZM23.3322 12.8318H25.6655C25.6655 6.84684 21.147 2.33301 15.1538 2.33301V4.66634C19.8928 4.66634 23.3322 8.09984 23.3322 12.8318Z" fill="#F3C256"/>
<path d="M15.1655 9.33333C17.619 9.33333 18.6655 10.3798 18.6655 12.8333H20.9989C20.9989 9.07083 18.928 7 15.1655 7V9.33333Z" fill="#F3C256"/>
</svg>
