<svg width="29" height="29" viewBox="0 0 29 29" fill="none" xmlns="http://www.w3.org/2000/svg">
<path d="M12.0834 21.7503C14.2281 21.7499 16.3111 21.0319 18.0006 19.7107L23.3124 25.0225L25.021 23.3139L19.7091 18.0021C21.0311 16.3124 21.7495 14.229 21.75 12.0837C21.75 6.7537 17.4133 2.41699 12.0834 2.41699C6.7534 2.41699 2.41669 6.7537 2.41669 12.0837C2.41669 17.4136 6.7534 21.7503 12.0834 21.7503ZM12.0834 4.83366C16.0817 4.83366 19.3334 8.08528 19.3334 12.0837C19.3334 16.082 16.0817 19.3337 12.0834 19.3337C8.08498 19.3337 4.83335 16.082 4.83335 12.0837C4.83335 8.08528 8.08498 4.83366 12.0834 4.83366Z" fill="#F3C256"/>
<path d="M13.7895 10.3747C14.2475 10.8339 14.5 11.4405 14.5 12.0833H16.9167C16.9177 11.4482 16.7929 10.8193 16.5494 10.2327C16.3059 9.6462 15.9486 9.11374 15.4981 8.66615C13.6687 6.83915 10.4968 6.83915 8.66858 8.66615L10.3747 10.3771C11.2931 9.46123 12.876 9.46365 13.7895 10.3747Z" fill="#F3C256"/>
</svg>
