<svg width="194" height="136" viewBox="0 0 194 136" fill="none" xmlns="http://www.w3.org/2000/svg">
<path d="M15.048 99.216C12.552 99.216 10.296 98.664 8.28 97.56C6.288 96.456 4.716 94.932 3.564 92.988C2.436 91.02 1.872 88.824 1.872 86.4C1.872 83.976 2.436 81.792 3.564 79.848C4.716 77.88 6.3 76.344 8.316 75.24C10.332 74.136 12.588 73.584 15.084 73.584C16.956 73.584 18.684 73.896 20.268 74.52C21.852 75.144 23.196 76.056 24.3 77.256L22.608 78.948C20.64 76.956 18.156 75.96 15.156 75.96C13.164 75.96 11.352 76.416 9.72 77.328C8.088 78.24 6.804 79.488 5.868 81.072C4.956 82.656 4.5 84.432 4.5 86.4C4.5 88.368 4.956 90.144 5.868 91.728C6.804 93.312 8.088 94.56 9.72 95.472C11.352 96.384 13.164 96.84 15.156 96.84C18.18 96.84 20.664 95.832 22.608 93.816L24.3 95.508C23.196 96.708 21.84 97.632 20.232 98.28C18.648 98.904 16.92 99.216 15.048 99.216ZM45.1502 92.268H31.1102L28.0862 99H25.3142L36.8342 73.8H39.4622L50.9822 99H48.1742L45.1502 92.268ZM44.1782 90.108L38.1302 76.572L32.0822 90.108H44.1782ZM58.7812 76.104H49.9253V73.8H70.3013V76.104H61.4453V99H58.7812V76.104ZM85.1496 99.216C82.6536 99.216 80.3976 98.664 78.3816 97.56C76.3896 96.456 74.8176 94.932 73.6656 92.988C72.5376 91.02 71.9736 88.824 71.9736 86.4C71.9736 83.976 72.5376 81.792 73.6656 79.848C74.8176 77.88 76.4016 76.344 78.4176 75.24C80.4336 74.136 82.6896 73.584 85.1856 73.584C87.0576 73.584 88.7856 73.896 90.3696 74.52C91.9536 75.144 93.2976 76.056 94.4016 77.256L92.7096 78.948C90.7416 76.956 88.2576 75.96 85.2576 75.96C83.2656 75.96 81.4536 76.416 79.8216 77.328C78.1896 78.24 76.9056 79.488 75.9696 81.072C75.0576 82.656 74.6016 84.432 74.6016 86.4C74.6016 88.368 75.0576 90.144 75.9696 91.728C76.9056 93.312 78.1896 94.56 79.8216 95.472C81.4536 96.384 83.2656 96.84 85.2576 96.84C88.2816 96.84 90.7656 95.832 92.7096 93.816L94.4016 95.508C93.2976 96.708 91.9416 97.632 90.3336 98.28C88.7496 98.904 87.0216 99.216 85.1496 99.216ZM121.141 73.8V99H118.513V87.372H102.745V99H100.081V73.8H102.745V85.032H118.513V73.8H121.141ZM164.96 73.8V99H162.404V78.84L152.504 95.796H151.244L141.344 78.948V99H138.788V73.8H140.984L151.928 92.484L162.764 73.8H164.96ZM190.99 96.696V99H173.17V73.8H190.45V76.104H175.834V85.068H188.866V87.336H175.834V96.696H190.99Z" fill="#272B2B"/>
<path d="M38.1324 21.6547C25.3471 9.91925 8.71691 3.72554 2 2.09562C9.18015 8.61531 23.5404 22.7724 23.5404 27.243C23.5404 31.7136 9.18015 44.0079 2 49.5962C11.0331 49.5962 34.6581 31.4342 40.2169 30.0372C45.7757 28.6401 66 38 72.875 39.8167C78.7868 41.3789 81.9081 46.3364 82.6029 49.5962C85.3824 44.0079 90.7096 42.1451 93.0257 41.9123C94.6934 43.03 122.441 43.7751 136.107 44.0079C136.801 48.8977 140.971 57.2801 141.665 57.9787C142.221 58.5375 144.676 47.9663 145.835 42.6108C149.726 43.7285 177.566 35.6255 191 31.4342C189.379 31.2014 185.997 30.1769 185.441 27.9415C184.885 25.7062 187.063 22.8189 188.221 21.6547C186.831 18.8605 116.651 9.081 113.871 9.081C111.648 9.081 106.46 3.027 104.143 0C85.2434 18.4414 52.261 22.1204 38.1324 21.6547Z" fill="#F3C256"/>
<path d="M11.368 119.552H6.94V131H5.626V119.552H1.198V118.4H11.368V119.552ZM16.0517 131.09C15.1397 131.09 14.3177 130.886 13.5857 130.478C12.8537 130.058 12.2777 129.482 11.8577 128.75C11.4377 128.018 11.2277 127.19 11.2277 126.266C11.2277 125.342 11.4377 124.514 11.8577 123.782C12.2777 123.05 12.8537 122.48 13.5857 122.072C14.3177 121.664 15.1397 121.46 16.0517 121.46C16.9637 121.46 17.7857 121.664 18.5177 122.072C19.2497 122.48 19.8197 123.05 20.2277 123.782C20.6477 124.514 20.8577 125.342 20.8577 126.266C20.8577 127.19 20.6477 128.018 20.2277 128.75C19.8197 129.482 19.2497 130.058 18.5177 130.478C17.7857 130.886 16.9637 131.09 16.0517 131.09ZM16.0517 129.956C16.7237 129.956 17.3237 129.806 17.8517 129.506C18.3917 129.194 18.8117 128.756 19.1117 128.192C19.4117 127.628 19.5617 126.986 19.5617 126.266C19.5617 125.546 19.4117 124.904 19.1117 124.34C18.8117 123.776 18.3917 123.344 17.8517 123.044C17.3237 122.732 16.7237 122.576 16.0517 122.576C15.3797 122.576 14.7737 122.732 14.2337 123.044C13.7057 123.344 13.2857 123.776 12.9737 124.34C12.6737 124.904 12.5237 125.546 12.5237 126.266C12.5237 126.986 12.6737 127.628 12.9737 128.192C13.2857 128.756 13.7057 129.194 14.2337 129.506C14.7737 129.806 15.3797 129.956 16.0517 129.956ZM29.349 126.104C30.633 126.404 31.275 127.178 31.275 128.426C31.275 129.254 30.969 129.89 30.357 130.334C29.745 130.778 28.833 131 27.621 131H23.319V121.532H27.495C28.575 121.532 29.421 121.742 30.033 122.162C30.645 122.582 30.951 123.182 30.951 123.962C30.951 124.478 30.807 124.922 30.519 125.294C30.243 125.654 29.853 125.924 29.349 126.104ZM24.561 125.744H27.405C28.137 125.744 28.695 125.606 29.079 125.33C29.475 125.054 29.673 124.652 29.673 124.124C29.673 123.596 29.475 123.2 29.079 122.936C28.695 122.672 28.137 122.54 27.405 122.54H24.561V125.744ZM27.567 129.992C28.383 129.992 28.995 129.86 29.403 129.596C29.811 129.332 30.015 128.918 30.015 128.354C30.015 127.79 29.829 127.376 29.457 127.112C29.085 126.836 28.497 126.698 27.693 126.698H24.561V129.992H27.567ZM37.2582 121.46C38.4942 121.46 39.4422 121.772 40.1022 122.396C40.7622 123.008 41.0922 123.92 41.0922 125.132V131H39.8682V129.524C39.5802 130.016 39.1542 130.4 38.5902 130.676C38.0382 130.952 37.3782 131.09 36.6102 131.09C35.5542 131.09 34.7142 130.838 34.0902 130.334C33.4662 129.83 33.1542 129.164 33.1542 128.336C33.1542 127.532 33.4422 126.884 34.0182 126.392C34.6062 125.9 35.5362 125.654 36.8082 125.654H39.8142V125.078C39.8142 124.262 39.5862 123.644 39.1302 123.224C38.6742 122.792 38.0082 122.576 37.1322 122.576C36.5322 122.576 35.9562 122.678 35.4042 122.882C34.8522 123.074 34.3782 123.344 33.9822 123.692L33.4062 122.738C33.8862 122.33 34.4622 122.018 35.1342 121.802C35.8062 121.574 36.5142 121.46 37.2582 121.46ZM36.8082 130.082C37.5282 130.082 38.1462 129.92 38.6622 129.596C39.1782 129.26 39.5622 128.78 39.8142 128.156V126.608H36.8442C35.2242 126.608 34.4142 127.172 34.4142 128.3C34.4142 128.852 34.6242 129.29 35.0442 129.614C35.4642 129.926 36.0522 130.082 36.8082 130.082ZM49.1023 121.46C49.9903 121.46 50.7943 121.664 51.5143 122.072C52.2343 122.468 52.7983 123.032 53.2063 123.764C53.6143 124.496 53.8183 125.33 53.8183 126.266C53.8183 127.214 53.6143 128.054 53.2063 128.786C52.7983 129.518 52.2343 130.088 51.5143 130.496C50.8063 130.892 50.0023 131.09 49.1023 131.09C48.3343 131.09 47.6383 130.934 47.0143 130.622C46.4023 130.298 45.8983 129.83 45.5023 129.218V134.492H44.2243V121.532H45.4483V123.404C45.8323 122.78 46.3363 122.3 46.9603 121.964C47.5963 121.628 48.3103 121.46 49.1023 121.46ZM49.0123 129.956C49.6723 129.956 50.2723 129.806 50.8123 129.506C51.3523 129.194 51.7723 128.756 52.0723 128.192C52.3843 127.628 52.5403 126.986 52.5403 126.266C52.5403 125.546 52.3843 124.91 52.0723 124.358C51.7723 123.794 51.3523 123.356 50.8123 123.044C50.2723 122.732 49.6723 122.576 49.0123 122.576C48.3403 122.576 47.7343 122.732 47.1943 123.044C46.6663 123.356 46.2463 123.794 45.9343 124.358C45.6343 124.91 45.4843 125.546 45.4843 126.266C45.4843 126.986 45.6343 127.628 45.9343 128.192C46.2463 128.756 46.6663 129.194 47.1943 129.506C47.7343 129.806 48.3403 129.956 49.0123 129.956ZM60.2722 124.88C61.4602 124.892 62.3662 125.156 62.9902 125.672C63.6142 126.188 63.9262 126.932 63.9262 127.904C63.9262 128.912 63.5902 129.686 62.9182 130.226C62.2462 130.766 61.2862 131.03 60.0382 131.018L56.2942 131V121.532H57.5722V124.844L60.2722 124.88ZM65.5102 121.532H66.7882V131H65.5102V121.532ZM59.9662 130.046C60.8422 130.058 61.5022 129.884 61.9462 129.524C62.4022 129.152 62.6302 128.612 62.6302 127.904C62.6302 127.208 62.4082 126.692 61.9642 126.356C61.5202 126.02 60.8542 125.846 59.9662 125.834L57.5722 125.798V130.01L59.9662 130.046ZM83.8319 129.884V133.286H82.6259V131H74.1479V133.286H72.9419V129.884H73.4819C74.1179 129.848 74.5499 129.38 74.7779 128.48C75.0059 127.58 75.1619 126.32 75.2459 124.7L75.3719 121.532H82.3559V129.884H83.8319ZM76.4159 124.772C76.3559 126.116 76.2419 127.226 76.0739 128.102C75.9059 128.966 75.6059 129.56 75.1739 129.884H81.0779V122.666H76.5239L76.4159 124.772ZM93.7925 121.532V131H92.5145V122.666H87.9785L87.8525 125.006C87.7565 126.974 87.5285 128.486 87.1685 129.542C86.8085 130.598 86.1665 131.126 85.2425 131.126C84.9905 131.126 84.6845 131.078 84.3245 130.982L84.4145 129.884C84.6305 129.932 84.7805 129.956 84.8645 129.956C85.3565 129.956 85.7285 129.728 85.9805 129.272C86.2325 128.816 86.4005 128.252 86.4845 127.58C86.5685 126.908 86.6405 126.02 86.7005 124.916L86.8625 121.532H93.7925ZM104.428 121.532V131H103.258V127.868H100.288H99.9276L97.7316 131H96.3456L98.7036 127.688C97.9716 127.484 97.4076 127.136 97.0116 126.644C96.6156 126.152 96.4176 125.528 96.4176 124.772C96.4176 123.716 96.7776 122.912 97.4976 122.36C98.2176 121.808 99.2016 121.532 100.45 121.532H104.428ZM97.7136 124.808C97.7136 126.212 98.6076 126.914 100.396 126.914H103.258V122.666H100.486C98.6376 122.666 97.7136 123.38 97.7136 124.808ZM117.121 121.46C118.009 121.46 118.813 121.664 119.533 122.072C120.253 122.468 120.817 123.032 121.225 123.764C121.633 124.496 121.837 125.33 121.837 126.266C121.837 127.214 121.633 128.054 121.225 128.786C120.817 129.518 120.253 130.088 119.533 130.496C118.825 130.892 118.021 131.09 117.121 131.09C116.353 131.09 115.657 130.934 115.033 130.622C114.421 130.298 113.917 129.83 113.521 129.218V134.492H112.243V121.532H113.467V123.404C113.851 122.78 114.355 122.3 114.979 121.964C115.615 121.628 116.329 121.46 117.121 121.46ZM117.031 129.956C117.691 129.956 118.291 129.806 118.831 129.506C119.371 129.194 119.791 128.756 120.091 128.192C120.403 127.628 120.559 126.986 120.559 126.266C120.559 125.546 120.403 124.91 120.091 124.358C119.791 123.794 119.371 123.356 118.831 123.044C118.291 122.732 117.691 122.576 117.031 122.576C116.359 122.576 115.753 122.732 115.213 123.044C114.685 123.356 114.265 123.794 113.953 124.358C113.653 124.91 113.503 125.546 113.503 126.266C113.503 126.986 113.653 127.628 113.953 128.192C114.265 128.756 114.685 129.194 115.213 129.506C115.753 129.806 116.359 129.956 117.031 129.956ZM128.29 124.88C129.478 124.892 130.384 125.156 131.008 125.672C131.632 126.188 131.944 126.932 131.944 127.904C131.944 128.912 131.608 129.686 130.936 130.226C130.264 130.766 129.304 131.03 128.056 131.018L124.312 131V121.532H125.59V124.844L128.29 124.88ZM133.528 121.532H134.806V131H133.528V121.532ZM127.984 130.046C128.86 130.058 129.52 129.884 129.964 129.524C130.42 129.152 130.648 128.612 130.648 127.904C130.648 127.208 130.426 126.692 129.982 126.356C129.538 126.02 128.872 125.846 127.984 125.834L125.59 125.798V130.01L127.984 130.046ZM142.765 121.766C143.641 121.766 144.421 121.964 145.105 122.36C145.801 122.744 146.341 123.29 146.725 123.998C147.109 124.694 147.301 125.492 147.301 126.392C147.301 127.316 147.097 128.138 146.689 128.858C146.293 129.566 145.735 130.118 145.015 130.514C144.295 130.91 143.467 131.108 142.531 131.108C140.959 131.108 139.741 130.556 138.877 129.452C138.013 128.348 137.581 126.824 137.581 124.88C137.581 122.852 137.965 121.298 138.733 120.218C139.513 119.138 140.725 118.406 142.369 118.022L146.617 117.05L146.833 118.22L142.837 119.138C141.481 119.438 140.485 119.972 139.849 120.74C139.213 121.496 138.865 122.618 138.805 124.106C139.189 123.374 139.723 122.804 140.407 122.396C141.091 121.976 141.877 121.766 142.765 121.766ZM142.567 130.046C143.227 130.046 143.815 129.896 144.331 129.596C144.859 129.284 145.267 128.852 145.555 128.3C145.855 127.748 146.005 127.124 146.005 126.428C146.005 125.732 145.861 125.12 145.573 124.592C145.285 124.064 144.877 123.656 144.349 123.368C143.833 123.068 143.239 122.918 142.567 122.918C141.895 122.918 141.295 123.068 140.767 123.368C140.251 123.656 139.843 124.064 139.543 124.592C139.255 125.12 139.111 125.732 139.111 126.428C139.111 127.124 139.255 127.748 139.543 128.3C139.843 128.852 140.257 129.284 140.785 129.596C141.313 129.896 141.907 130.046 142.567 130.046ZM152.976 121.46C154.212 121.46 155.16 121.772 155.82 122.396C156.48 123.008 156.81 123.92 156.81 125.132V131H155.586V129.524C155.298 130.016 154.872 130.4 154.308 130.676C153.756 130.952 153.096 131.09 152.328 131.09C151.272 131.09 150.432 130.838 149.808 130.334C149.184 129.83 148.872 129.164 148.872 128.336C148.872 127.532 149.16 126.884 149.736 126.392C150.324 125.9 151.254 125.654 152.526 125.654H155.532V125.078C155.532 124.262 155.304 123.644 154.848 123.224C154.392 122.792 153.726 122.576 152.85 122.576C152.25 122.576 151.674 122.678 151.122 122.882C150.57 123.074 150.096 123.344 149.7 123.692L149.124 122.738C149.604 122.33 150.18 122.018 150.852 121.802C151.524 121.574 152.232 121.46 152.976 121.46ZM152.526 130.082C153.246 130.082 153.864 129.92 154.38 129.596C154.896 129.26 155.28 128.78 155.532 128.156V126.608H152.562C150.942 126.608 150.132 127.172 150.132 128.3C150.132 128.852 150.342 129.29 150.762 129.614C151.182 129.926 151.77 130.082 152.526 130.082ZM167.682 121.532V131H166.404V122.666H161.868L161.742 125.006C161.646 126.974 161.418 128.486 161.058 129.542C160.698 130.598 160.056 131.126 159.132 131.126C158.88 131.126 158.574 131.078 158.214 130.982L158.304 129.884C158.52 129.932 158.67 129.956 158.754 129.956C159.246 129.956 159.618 129.728 159.87 129.272C160.122 128.816 160.29 128.252 160.374 127.58C160.458 126.908 160.53 126.02 160.59 124.916L160.752 121.532H167.682ZM174.483 126.788H172.323V131H171.045V121.532H172.323V125.69H174.501L177.831 121.532H179.217L175.491 126.122L179.487 131H177.975L174.483 126.788ZM181.234 121.532H182.512V129.056L188.83 121.532H189.964V131H188.686V123.476L182.386 131H181.234V121.532Z" fill="#272B2B"/>
<rect x="2" y="108" width="189" height="2" rx="1" fill="#64777A"/>
</svg>
